
<svg version="1.0" xmlns="http://www.w3.org/2000/svg"
 width="549.000000pt" height="547.000000pt" viewBox="0 0 549.000000 547.000000"
 preserveAspectRatio="xMidYMid meet">

<g transform="translate(0.000000,547.000000) scale(0.100000,-0.100000)"
fill="#000000" stroke="none">
<path d="M0 2735 l0 -2735 2745 0 2745 0 0 2735 0 2735 -2745 0 -2745 0 0
-2735z m2750 2270 c9 -6 11 -4 5 5 -6 10 0 11 26 7 47 -9 287 -39 327 -42 17
-1 35 -5 39 -8 3 -4 16 -7 28 -7 11 0 27 -6 34 -12 11 -11 12 -10 6 1 -5 9 -1
9 17 -3 13 -9 34 -14 46 -11 12 2 24 0 27 -6 4 -5 15 -9 26 -9 10 0 19 -5 19
-11 0 -5 4 -8 9 -5 5 3 33 -5 63 -19 29 -14 62 -25 74 -25 11 0 24 -3 27 -6
12 -12 122 -54 142 -54 17 0 17 -2 5 -10 -12 -8 -11 -10 7 -10 12 0 25 -5 28
-10 4 -6 11 -8 16 -5 5 4 9 2 9 -2 0 -5 19 -17 43 -28 23 -10 44 -21 47 -25 3
-3 35 -23 73 -44 37 -20 67 -41 67 -46 0 -6 5 -10 12 -10 6 0 27 -12 47 -27
20 -16 39 -27 44 -25 4 1 7 -2 7 -7 0 -5 23 -23 50 -41 28 -18 56 -40 63 -50
7 -9 27 -25 44 -34 18 -9 32 -20 30 -24 -3 -12 54 -71 86 -88 15 -8 25 -19 22
-24 -4 -6 -1 -10 5 -10 6 0 16 -11 22 -25 6 -14 16 -25 22 -26 6 0 27 -20 46
-45 19 -25 45 -56 58 -70 12 -14 22 -29 22 -33 0 -5 7 -11 15 -15 8 -3 15 -12
15 -19 0 -8 7 -20 15 -27 8 -7 15 -21 15 -31 0 -11 6 -19 14 -19 7 0 19 -13
26 -30 7 -16 17 -30 22 -30 5 0 6 -4 3 -10 -3 -5 -3 -10 2 -10 4 0 13 -10 19
-23 49 -96 67 -127 75 -127 5 0 9 -6 9 -14 0 -8 13 -44 30 -80 16 -36 26 -66
22 -66 -4 0 -2 -4 4 -8 15 -10 48 -87 64 -150 8 -29 18 -52 23 -52 5 0 7 -9 4
-20 -3 -11 -1 -20 5 -20 5 0 7 -3 5 -7 -3 -5 0 -19 5 -33 6 -14 12 -36 14 -50
5 -33 10 -52 17 -70 12 -31 38 -201 32 -210 -3 -6 -2 -10 3 -10 13 0 17 -81
17 -310 -1 -206 -8 -310 -25 -368 -5 -18 -9 -35 -9 -37 0 -3 -2 -18 -5 -33
-12 -57 -19 -98 -20 -117 0 -11 -4 -22 -8 -25 -4 -3 -9 -17 -12 -30 -10 -47
-51 -175 -61 -190 -5 -8 -11 -26 -13 -40 -2 -14 -30 -80 -62 -146 -33 -67 -60
-127 -60 -133 0 -6 -4 -11 -9 -11 -5 0 -17 -18 -27 -40 -10 -22 -22 -40 -28
-40 -5 0 -7 -3 -4 -6 4 -3 -13 -33 -35 -67 -23 -34 -49 -75 -57 -91 -15 -29
-29 -46 -160 -189 -84 -91 -111 -117 -121 -117 -5 0 -9 -5 -9 -11 0 -6 -13
-24 -30 -39 -16 -15 -30 -26 -30 -24 0 2 -13 -10 -29 -26 -15 -17 -33 -30 -39
-30 -6 0 -18 -10 -27 -22 -8 -13 -19 -23 -23 -23 -6 0 -93 -66 -112 -85 -3 -3
-19 -12 -35 -21 -43 -23 -79 -43 -85 -49 -8 -8 -43 -29 -70 -42 -14 -7 -27
-15 -30 -18 -10 -11 -70 -41 -70 -35 0 3 -21 -6 -47 -19 -25 -14 -50 -23 -55
-20 -4 3 -8 1 -8 -5 0 -6 -10 -15 -21 -22 -17 -9 -20 -8 -14 2 5 7 -2 5 -16
-4 -13 -9 -29 -17 -35 -17 -6 0 -33 -10 -60 -22 -27 -12 -56 -23 -65 -24 -8 0
-37 -8 -65 -17 -27 -9 -61 -18 -76 -21 -15 -3 -33 -8 -39 -12 -7 -4 -38 -13
-71 -19 -42 -9 -58 -10 -58 -1 0 8 -2 8 -8 0 -9 -14 -48 -21 -187 -34 -119
-10 -346 -14 -383 -6 -13 3 -46 6 -75 7 -50 1 -256 35 -287 47 -8 3 -21 4 -27
3 -7 -1 -22 3 -34 9 -11 7 -33 14 -47 16 -15 3 -34 7 -42 11 -8 3 -18 7 -22 8
-5 2 -9 3 -10 4 -2 2 -14 4 -28 7 -14 2 -47 13 -75 25 -27 11 -59 24 -70 28
-11 5 -40 18 -63 30 -24 11 -48 21 -53 21 -5 0 -28 12 -51 26 -23 14 -46 27
-52 29 -27 5 -63 24 -75 39 -7 9 -22 16 -32 16 -11 0 -19 5 -19 10 0 6 -6 10
-13 10 -8 0 -24 9 -37 20 -13 11 -26 20 -30 20 -3 0 -15 8 -26 18 -10 9 -43
33 -72 52 -28 19 -52 38 -52 43 0 4 -6 7 -12 7 -7 0 -32 18 -56 40 -24 22 -44
40 -46 40 -8 0 -186 181 -186 189 0 6 -6 11 -12 11 -7 0 -23 16 -36 35 -12 19
-27 35 -32 35 -6 0 -10 6 -10 13 0 18 -56 77 -66 69 -4 -4 -4 -1 0 6 4 7 -3
25 -18 42 -13 17 -27 39 -31 50 -3 11 -11 20 -16 20 -5 0 -9 4 -9 9 0 6 -13
29 -29 53 -16 24 -32 53 -35 66 -4 12 -11 22 -16 22 -5 0 -12 10 -15 23 -4 12
-20 43 -36 69 -16 27 -26 48 -23 48 4 0 0 8 -7 17 -12 15 -12 16 1 8 13 -7 13
-5 -1 11 -8 10 -24 39 -34 64 -11 25 -22 47 -25 50 -7 7 -41 100 -45 125 -7
39 -14 65 -22 78 -4 6 -8 22 -9 34 0 12 -6 28 -12 36 -7 8 -9 17 -5 20 3 4 1
12 -5 20 -11 12 -16 40 -28 132 -2 22 -9 72 -14 110 -20 143 -23 412 -5 569 9
82 21 158 26 168 7 13 6 18 -3 18 -6 0 -3 7 8 16 10 8 12 12 4 8 -12 -6 -13
-5 -3 7 6 8 13 28 16 44 2 17 7 37 10 45 3 8 10 35 15 60 6 25 17 70 26 100 9
30 18 62 19 70 1 8 8 20 14 25 7 6 14 20 16 32 2 12 6 26 10 29 4 4 7 16 7 26
0 10 5 18 11 18 5 0 8 4 4 9 -3 5 1 15 8 23 8 7 12 19 9 27 -3 8 3 18 12 23 9
5 16 15 16 23 0 8 17 44 37 80 21 37 52 90 68 119 28 50 69 108 123 176 12 15
22 31 22 34 0 3 15 20 33 36 24 22 27 29 12 24 -14 -4 -13 -1 5 9 14 8 46 40
72 70 61 69 193 201 230 230 17 12 35 27 42 33 6 6 21 16 34 23 12 6 21 16 19
22 -1 6 6 13 16 14 10 2 27 11 36 19 10 9 23 16 29 16 6 0 20 12 31 26 11 14
25 23 30 20 5 -4 18 2 28 12 36 38 224 137 251 133 6 -1 12 3 12 9 0 5 7 10
16 10 8 0 22 7 30 15 9 8 26 15 40 15 13 0 24 4 24 9 0 8 66 35 112 46 10 2
32 11 50 19 47 21 154 47 199 48 22 0 39 4 39 9 0 5 15 9 33 9 17 0 50 5 72
10 78 18 101 20 215 27 63 3 116 6 117 7 7 5 123 -3 133 -9z"/>
<path d="M2400 4684 c-361 -49 -707 -192 -995 -413 -94 -72 -261 -237 -345
-342 -225 -281 -370 -614 -427 -981 -21 -139 -23 -432 -4 -568 137 -971 920
-1703 1892 -1769 167 -11 151 -11 299 0 473 36 924 239 1263 568 369 357 578
807 618 1328 35 452 -86 908 -344 1293 -169 252 -434 496 -698 641 -386 212
-840 299 -1259 243z m1138 -1371 c3 -27 -1 -33 -22 -39 -17 -4 -26 -14 -28
-32 -2 -19 -10 -28 -25 -30 -34 -5 -29 -32 6 -32 22 0 30 -6 35 -24 4 -18 14
-26 34 -28 24 -3 27 -7 27 -38 0 -32 -3 -35 -32 -38 -28 -3 -33 1 -39 22 -5
20 -12 26 -35 26 -25 0 -29 4 -29 26 0 24 -3 26 -31 20 -17 -3 -38 -6 -46 -6
-12 0 -14 -10 -8 -51 8 -56 0 -69 -42 -69 -15 0 -24 7 -28 23 -13 62 -36 251
-31 263 3 8 19 14 35 14 32 0 36 -8 43 -70 5 -46 84 -39 90 8 2 19 9 28 26 30
17 3 22 10 22 33 0 29 2 30 38 27 34 -3 37 -6 40 -35z m-388 -38 c0 -21 5 -25
29 -25 25 0 30 -5 36 -31 7 -32 -4 -48 -32 -49 -26 0 -12 -29 15 -32 24 -3 27
-7 27 -38 0 -29 -4 -36 -22 -38 -18 -3 -23 -10 -23 -33 0 -16 -5 -29 -12 -29
-7 0 -58 -7 -113 -15 -55 -7 -103 -11 -106 -7 -8 9 -43 281 -37 287 5 6 171
32 211 34 22 1 27 -3 27 -24z m-330 -51 c0 -21 4 -23 25 -18 29 7 41 -15 46
-87 3 -40 1 -44 -21 -49 -19 -4 -25 -11 -25 -30 0 -26 1 -25 -117 -45 -31 -5
-37 -10 -40 -33 -3 -24 -7 -27 -38 -27 l-35 0 -18 115 c-9 63 -16 128 -15 145
l3 30 105 16 c58 8 111 13 118 11 6 -2 12 -15 12 -28z m-500 -65 c5 -19 11
-23 32 -21 18 2 28 -2 31 -15 12 -40 29 -203 24 -217 -4 -10 -18 -16 -36 -16
-24 0 -32 5 -37 25 -6 24 -9 25 -53 20 -88 -12 -91 -13 -91 -45 0 -27 -3 -30
-34 -30 -40 0 -40 1 -55 113 -16 114 -15 125 11 129 16 2 24 12 28 33 5 29 8
30 80 41 92 13 93 13 100 -17z m-481 -158 l14 -103 46 6 c25 3 76 9 114 12
l67 7 0 -37 c0 -20 -1 -36 -2 -36 -45 -9 -190 -29 -210 -30 -23 0 -28 4 -28
25 0 21 -5 25 -30 25 -16 0 -30 3 -30 6 0 4 -7 53 -15 110 -9 58 -13 109 -10
115 4 5 21 9 38 7 l32 -3 14 -104z m2749 -167 c17 -129 16 -180 -4 -188 -29
-11 -44 -6 -50 18 -4 17 -14 26 -32 28 -19 2 -28 10 -30 26 -3 17 -10 22 -33
22 -22 0 -29 5 -29 19 0 23 -18 37 -30 25 -4 -5 -3 -42 3 -82 11 -80 6 -92
-40 -92 -26 0 -27 2 -48 147 -21 146 -21 150 15 155 33 5 50 -7 50 -33 0 -13
7 -17 27 -16 22 2 29 -3 31 -20 3 -18 10 -23 32 -23 22 0 29 -5 32 -22 2 -13
11 -24 22 -26 15 -3 18 0 13 20 -3 12 -9 51 -13 85 l-6 61 28 4 c16 2 34 -1
40 -7 6 -5 16 -51 22 -101z m-396 34 c2 -16 10 -23 26 -23 31 -1 38 -16 49
-102 10 -75 4 -93 -27 -93 -11 0 -16 -9 -15 -27 0 -26 -2 -27 -85 -39 -47 -7
-88 -10 -92 -8 -5 3 -8 14 -8 25 0 14 -7 19 -29 19 -33 0 -37 9 -47 118 -7 68
-6 72 14 72 15 0 22 7 24 28 3 24 9 28 58 39 30 6 72 12 92 12 31 1 37 -3 40
-21z m-334 -59 c3 -34 1 -37 -29 -43 -39 -7 -38 -8 -46 37 -5 31 -3 36 18 40
45 9 54 3 57 -34z m-163 -29 l0 -35 -105 -15 c-58 -8 -104 -18 -104 -23 1 -4
4 -34 8 -67 8 -70 5 -69 139 -48 87 13 100 7 95 -42 -3 -23 -9 -25 -113 -41
-101 -16 -111 -16 -122 -1 -7 9 -13 22 -13 29 0 9 -8 11 -24 7 -15 -3 -25 -1
-29 9 -4 12 -21 134 -22 162 0 5 11 12 25 15 20 5 24 11 22 32 -3 23 1 28 30
33 104 18 147 23 178 22 33 -2 35 -4 35 -37z m-387 -37 c3 -18 10 -23 31 -23
27 0 29 -2 40 -77 25 -168 26 -152 -5 -163 -35 -14 -54 -6 -54 20 0 22 -7 23
-87 14 -50 -6 -53 -8 -53 -35 0 -22 -6 -30 -25 -35 -44 -11 -51 -1 -64 98 -7
51 -15 103 -18 116 -4 18 0 23 24 28 23 5 29 11 28 32 0 25 4 27 65 38 91 17
114 14 118 -13z m622 -38 c0 -28 -4 -36 -24 -41 -32 -8 -23 -32 12 -36 22 -2
28 -9 30 -35 4 -36 5 -36 -108 -52 -36 -5 -68 -7 -72 -4 -5 2 -8 19 -8 38 0
27 5 34 25 39 36 9 32 34 -7 38 -29 3 -33 7 -36 35 -3 27 1 33 20 37 34 8 77
13 126 15 42 1 42 1 42 -34z m-896 -6 c7 -37 1 -49 -25 -49 -14 0 -19 -7 -19
-30 0 -25 -4 -30 -25 -30 -21 0 -25 -5 -25 -29 0 -22 -6 -30 -25 -35 -14 -4
-25 -13 -25 -22 0 -13 8 -15 38 -10 137 20 129 21 137 -14 4 -18 3 -35 -1 -40
-11 -9 -214 -40 -262 -40 -32 0 -33 1 -30 37 2 27 8 39 23 43 13 3 20 13 20
30 0 18 6 26 22 28 15 2 23 11 25 30 2 19 10 28 26 30 13 2 22 10 22 21 0 15
-6 17 -52 10 -101 -14 -115 -12 -121 19 -3 15 -1 32 4 37 9 10 191 41 255 44
28 1 32 -3 38 -30z m-390 -35 c15 -39 7 -62 -25 -69 -36 -8 -51 6 -47 45 2 16
11 26 28 31 37 10 37 10 44 -7z m-164 -26 c0 -7 9 -71 20 -143 21 -140 20
-145 -32 -145 -23 0 -28 4 -28 25 0 21 -5 25 -30 25 -23 0 -31 5 -36 25 -5 19
-11 24 -24 20 -18 -6 -36 9 -41 37 -3 12 -8 15 -18 9 -11 -7 -12 -22 -5 -79 6
-38 8 -75 6 -81 -4 -12 -72 -16 -72 -3 -1 4 -9 68 -20 142 -10 74 -16 138 -14
142 3 4 21 8 40 8 30 0 34 -3 34 -26 0 -18 5 -25 18 -23 33 3 40 -1 46 -26 5
-21 11 -24 31 -19 20 5 25 1 32 -25 6 -23 11 -28 22 -21 12 7 13 20 4 81 -7
40 -10 77 -7 81 8 13 74 9 74 -4z m-384 -63 c4 -18 13 -25 30 -25 14 0 27 -6
29 -12 11 -30 32 -214 26 -221 -4 -4 -21 -9 -36 -10 -22 -2 -30 3 -34 21 -7
27 0 26 -84 17 -65 -7 -67 -8 -65 -33 2 -21 -3 -28 -25 -36 -17 -6 -30 -6 -36
0 -12 11 -43 222 -35 235 3 5 14 9 24 9 13 0 20 8 22 28 3 25 8 28 68 38 101
18 109 17 116 -11z m622 -42 c3 -28 -1 -33 -22 -39 -36 -9 -34 -34 3 -34 22 0
30 -6 35 -24 11 -43 0 -51 -87 -63 -45 -6 -85 -9 -89 -6 -5 2 -8 19 -8 38 0
27 4 34 23 37 29 4 29 33 -1 33 -26 1 -42 20 -42 52 0 17 7 23 33 27 17 3 43
7 57 10 14 2 41 3 60 2 32 -1 35 -4 38 -33z m-900 -14 l3 -37 -107 -13 -106
-13 6 -66 c4 -36 10 -68 14 -72 13 -13 142 15 142 30 0 10 -14 13 -57 10 l-58
-3 0 35 0 35 83 13 c46 8 86 11 89 8 9 -9 31 -170 24 -178 -9 -9 -221 -39
-232 -32 -5 3 -9 14 -9 24 0 13 -8 20 -27 22 -27 3 -29 7 -41 82 -15 89 -12
106 18 106 16 0 20 7 20 30 0 25 4 30 33 35 102 17 145 23 172 22 27 -2 30 -6
33 -38z m-383 -38 c5 -23 10 -27 29 -24 29 6 32 2 40 -69 7 -56 7 -57 -18 -64
-37 -9 -33 -34 5 -34 29 0 30 -2 27 -37 -3 -35 -6 -38 -35 -41 -30 -3 -33 -1
-33 24 0 26 0 26 -57 20 -83 -10 -91 -14 -95 -44 -2 -20 -9 -28 -27 -30 -13
-2 -28 1 -33 6 -13 13 -50 274 -40 284 5 5 158 31 219 37 6 1 14 -12 18 -28z
m-333 -43 c2 -16 12 -24 33 -28 29 -5 30 -7 40 -88 11 -86 7 -102 -26 -102
-13 0 -17 -7 -16 -27 2 -28 1 -28 -82 -40 -47 -7 -88 -10 -93 -7 -4 3 -8 14
-8 25 0 14 -7 19 -29 19 -29 0 -29 1 -41 84 -13 91 -10 106 21 106 14 0 19 7
19 29 0 28 3 30 53 39 28 5 69 10 89 11 31 1 37 -3 40 -21z"/>
<path d="M3080 3215 c-8 -2 -32 -6 -52 -10 -24 -4 -38 -11 -38 -20 0 -18 5
-18 87 -4 42 7 63 16 63 25 0 13 -23 16 -60 9z"/>
<path d="M3095 3105 c-5 -2 -27 -6 -47 -10 -24 -4 -38 -11 -38 -21 0 -12 9
-14 43 -9 78 11 97 17 97 31 0 13 -29 18 -55 9z"/>
<path d="M2697 3163 l-37 -4 6 -42 c4 -23 8 -44 10 -46 1 -1 35 2 74 9 66 11
71 14 66 34 -3 11 -6 29 -6 39 0 18 -20 19 -113 10z"/>
<path d="M2233 3097 l-63 -10 0 -38 c0 -21 4 -40 10 -44 5 -3 39 -1 76 6 l66
11 -6 30 c-3 17 -6 37 -6 44 0 8 -3 13 -7 13 -5 -1 -36 -6 -70 -12z"/>
<path d="M4077 2801 c-21 -3 -38 -8 -39 -11 0 -3 2 -36 6 -73 8 -67 8 -68 34
-63 15 3 48 8 73 11 l45 7 -7 51 c-4 29 -8 60 -8 70 -1 18 -27 20 -104 8z"/>
<path d="M3211 2679 c-30 -5 -56 -11 -58 -13 -6 -6 13 -81 20 -79 4 0 34 4 68
8 l60 7 -3 41 c-3 48 -7 49 -87 36z"/>
<path d="M1993 2508 c-55 -10 -57 -13 -47 -65 l6 -29 69 9 c74 10 78 16 63 75
-7 24 -12 24 -91 10z"/>
<path d="M1343 2418 c-62 -10 -63 -10 -63 -41 0 -53 8 -58 75 -47 33 5 63 10
68 10 4 0 7 10 7 23 0 30 -11 67 -19 66 -3 -1 -34 -6 -68 -11z"/>
<path d="M1025 2375 c-5 -2 -26 -6 -45 -9 l-36 -6 10 -70 10 -70 40 6 c111 14
108 13 102 42 -3 15 -8 46 -11 70 -6 38 -10 42 -33 41 -15 0 -31 -2 -37 -4z"/>
</g>
</svg>
